<mxfile host="Electron" modified="2024-05-05T18:36:02.947Z" agent="Mozilla/5.0 (Windows NT 10.0; Win64; x64) AppleWebKit/537.36 (KHTML, like Gecko) draw.io/24.2.5 Chrome/120.0.6099.109 Electron/28.1.0 Safari/537.36" etag="GKQXjjeBGrEVLeq8l1r-" version="24.2.5" type="device">
  <diagram name="PÃ¡gina-1" id="1swOlOmnNFka-tOWSmqr">
    <mxGraphModel dx="472" dy="827" grid="1" gridSize="10" guides="1" tooltips="1" connect="1" arrows="1" fold="1" page="1" pageScale="1" pageWidth="827" pageHeight="1169" math="0" shadow="0">
      <root>
        <mxCell id="0" />
        <mxCell id="1" parent="0" />
        <mxCell id="PDY6XYFD98NTj9XvC-zB-4" style="edgeStyle=orthogonalEdgeStyle;rounded=0;orthogonalLoop=1;jettySize=auto;html=1;" edge="1" parent="1" source="PDY6XYFD98NTj9XvC-zB-2" target="PDY6XYFD98NTj9XvC-zB-3">
          <mxGeometry relative="1" as="geometry" />
        </mxCell>
        <mxCell id="PDY6XYFD98NTj9XvC-zB-2" value="Inicio" style="strokeWidth=2;html=1;shape=mxgraph.flowchart.terminator;whiteSpace=wrap;" vertex="1" parent="1">
          <mxGeometry x="190" y="60" width="100" height="60" as="geometry" />
        </mxCell>
        <mxCell id="PDY6XYFD98NTj9XvC-zB-6" style="edgeStyle=orthogonalEdgeStyle;rounded=0;orthogonalLoop=1;jettySize=auto;html=1;" edge="1" parent="1" source="PDY6XYFD98NTj9XvC-zB-3" target="PDY6XYFD98NTj9XvC-zB-5">
          <mxGeometry relative="1" as="geometry" />
        </mxCell>
        <mxCell id="PDY6XYFD98NTj9XvC-zB-3" value="valorA" style="html=1;strokeWidth=2;shape=manualInput;whiteSpace=wrap;rounded=1;size=26;arcSize=11;" vertex="1" parent="1">
          <mxGeometry x="190" y="160" width="100" height="60" as="geometry" />
        </mxCell>
        <mxCell id="PDY6XYFD98NTj9XvC-zB-14" style="edgeStyle=orthogonalEdgeStyle;rounded=0;orthogonalLoop=1;jettySize=auto;html=1;" edge="1" parent="1" source="PDY6XYFD98NTj9XvC-zB-5" target="PDY6XYFD98NTj9XvC-zB-12">
          <mxGeometry relative="1" as="geometry" />
        </mxCell>
        <mxCell id="PDY6XYFD98NTj9XvC-zB-5" value="valorB" style="html=1;strokeWidth=2;shape=manualInput;whiteSpace=wrap;rounded=1;size=26;arcSize=11;" vertex="1" parent="1">
          <mxGeometry x="190" y="250" width="100" height="60" as="geometry" />
        </mxCell>
        <mxCell id="PDY6XYFD98NTj9XvC-zB-11" style="edgeStyle=orthogonalEdgeStyle;rounded=0;orthogonalLoop=1;jettySize=auto;html=1;" edge="1" source="PDY6XYFD98NTj9XvC-zB-12" target="PDY6XYFD98NTj9XvC-zB-13" parent="1">
          <mxGeometry relative="1" as="geometry" />
        </mxCell>
        <mxCell id="PDY6XYFD98NTj9XvC-zB-12" value="valorC" style="html=1;strokeWidth=2;shape=manualInput;whiteSpace=wrap;rounded=1;size=26;arcSize=11;" vertex="1" parent="1">
          <mxGeometry x="190" y="340" width="100" height="60" as="geometry" />
        </mxCell>
        <mxCell id="PDY6XYFD98NTj9XvC-zB-15" style="edgeStyle=orthogonalEdgeStyle;rounded=0;orthogonalLoop=1;jettySize=auto;html=1;" edge="1" parent="1" source="PDY6XYFD98NTj9XvC-zB-13" target="PDY6XYFD98NTj9XvC-zB-16">
          <mxGeometry relative="1" as="geometry">
            <mxPoint x="250" y="560" as="targetPoint" />
          </mxGeometry>
        </mxCell>
        <mxCell id="PDY6XYFD98NTj9XvC-zB-13" value="valorD" style="html=1;strokeWidth=2;shape=manualInput;whiteSpace=wrap;rounded=1;size=26;arcSize=11;" vertex="1" parent="1">
          <mxGeometry x="190" y="430" width="100" height="60" as="geometry" />
        </mxCell>
        <mxCell id="PDY6XYFD98NTj9XvC-zB-18" style="edgeStyle=orthogonalEdgeStyle;rounded=0;orthogonalLoop=1;jettySize=auto;html=1;" edge="1" parent="1" source="PDY6XYFD98NTj9XvC-zB-16" target="PDY6XYFD98NTj9XvC-zB-17">
          <mxGeometry relative="1" as="geometry" />
        </mxCell>
        <mxCell id="PDY6XYFD98NTj9XvC-zB-16" value="somaP = valorA+valorC;" style="rounded=1;whiteSpace=wrap;html=1;absoluteArcSize=1;arcSize=14;strokeWidth=2;" vertex="1" parent="1">
          <mxGeometry x="190" y="530" width="100" height="60" as="geometry" />
        </mxCell>
        <mxCell id="PDY6XYFD98NTj9XvC-zB-20" style="edgeStyle=orthogonalEdgeStyle;rounded=0;orthogonalLoop=1;jettySize=auto;html=1;" edge="1" parent="1" source="PDY6XYFD98NTj9XvC-zB-17" target="PDY6XYFD98NTj9XvC-zB-19">
          <mxGeometry relative="1" as="geometry" />
        </mxCell>
        <mxCell id="PDY6XYFD98NTj9XvC-zB-17" value="somaS = valorB+valorD;" style="rounded=1;whiteSpace=wrap;html=1;absoluteArcSize=1;arcSize=14;strokeWidth=2;" vertex="1" parent="1">
          <mxGeometry x="190" y="630" width="100" height="60" as="geometry" />
        </mxCell>
        <mxCell id="PDY6XYFD98NTj9XvC-zB-22" style="edgeStyle=orthogonalEdgeStyle;rounded=0;orthogonalLoop=1;jettySize=auto;html=1;" edge="1" parent="1" source="PDY6XYFD98NTj9XvC-zB-19" target="PDY6XYFD98NTj9XvC-zB-21">
          <mxGeometry relative="1" as="geometry" />
        </mxCell>
        <mxCell id="PDY6XYFD98NTj9XvC-zB-19" value="somaP" style="strokeWidth=2;html=1;shape=mxgraph.flowchart.display;whiteSpace=wrap;" vertex="1" parent="1">
          <mxGeometry x="190" y="750" width="100" height="60" as="geometry" />
        </mxCell>
        <mxCell id="PDY6XYFD98NTj9XvC-zB-24" style="edgeStyle=orthogonalEdgeStyle;rounded=0;orthogonalLoop=1;jettySize=auto;html=1;" edge="1" parent="1" source="PDY6XYFD98NTj9XvC-zB-21" target="PDY6XYFD98NTj9XvC-zB-23">
          <mxGeometry relative="1" as="geometry" />
        </mxCell>
        <mxCell id="PDY6XYFD98NTj9XvC-zB-21" value="somaS" style="strokeWidth=2;html=1;shape=mxgraph.flowchart.display;whiteSpace=wrap;" vertex="1" parent="1">
          <mxGeometry x="190" y="860" width="100" height="60" as="geometry" />
        </mxCell>
        <mxCell id="PDY6XYFD98NTj9XvC-zB-23" value="Fim" style="strokeWidth=2;html=1;shape=mxgraph.flowchart.terminator;whiteSpace=wrap;" vertex="1" parent="1">
          <mxGeometry x="190" y="960" width="100" height="60" as="geometry" />
        </mxCell>
      </root>
    </mxGraphModel>
  </diagram>
</mxfile>
